<mxfile host="app.diagrams.net" agent="Mozilla/5.0 (Macintosh; Intel Mac OS X 10_15_7) AppleWebKit/537.36 (KHTML, like Gecko) Chrome/131.0.0.0 Safari/537.36" version="26.0.11">
  <diagram name="Страница — 1" id="7Dly7g2NFjv95K83qed0">
    <mxGraphModel dx="1195" dy="654" grid="1" gridSize="10" guides="1" tooltips="1" connect="1" arrows="1" fold="1" page="1" pageScale="1" pageWidth="827" pageHeight="1169" math="0" shadow="0">
      <root>
        <mxCell id="0" />
        <mxCell id="1" parent="0" />
        <mxCell id="ghhOEXWkNby1sv8O7cv3-4" style="edgeStyle=orthogonalEdgeStyle;rounded=0;orthogonalLoop=1;jettySize=auto;html=1;exitX=0.5;exitY=1;exitDx=0;exitDy=0;" edge="1" parent="1" source="ghhOEXWkNby1sv8O7cv3-1" target="ghhOEXWkNby1sv8O7cv3-3">
          <mxGeometry relative="1" as="geometry" />
        </mxCell>
        <mxCell id="ghhOEXWkNby1sv8O7cv3-5" value="Bearer Token needed" style="edgeLabel;html=1;align=center;verticalAlign=middle;resizable=0;points=[];" vertex="1" connectable="0" parent="ghhOEXWkNby1sv8O7cv3-4">
          <mxGeometry x="-0.0111" y="3" relative="1" as="geometry">
            <mxPoint as="offset" />
          </mxGeometry>
        </mxCell>
        <mxCell id="ghhOEXWkNby1sv8O7cv3-1" value="User Request" style="rounded=0;whiteSpace=wrap;html=1;" vertex="1" parent="1">
          <mxGeometry x="500" y="70" width="120" height="60" as="geometry" />
        </mxCell>
        <mxCell id="ghhOEXWkNby1sv8O7cv3-7" style="edgeStyle=orthogonalEdgeStyle;rounded=0;orthogonalLoop=1;jettySize=auto;html=1;exitX=0;exitY=0.5;exitDx=0;exitDy=0;entryX=1;entryY=0.5;entryDx=0;entryDy=0;" edge="1" parent="1" source="ghhOEXWkNby1sv8O7cv3-20" target="ghhOEXWkNby1sv8O7cv3-6">
          <mxGeometry relative="1" as="geometry" />
        </mxCell>
        <mxCell id="ghhOEXWkNby1sv8O7cv3-3" value="API request to update the score" style="rounded=0;whiteSpace=wrap;html=1;" vertex="1" parent="1">
          <mxGeometry x="500" y="250" width="120" height="60" as="geometry" />
        </mxCell>
        <mxCell id="ghhOEXWkNby1sv8O7cv3-18" style="edgeStyle=orthogonalEdgeStyle;rounded=0;orthogonalLoop=1;jettySize=auto;html=1;exitX=0.75;exitY=0;exitDx=0;exitDy=0;entryX=0.75;entryY=1;entryDx=0;entryDy=0;" edge="1" parent="1" source="ghhOEXWkNby1sv8O7cv3-6" target="ghhOEXWkNby1sv8O7cv3-8">
          <mxGeometry relative="1" as="geometry" />
        </mxCell>
        <mxCell id="ghhOEXWkNby1sv8O7cv3-6" value="Site" style="whiteSpace=wrap;html=1;" vertex="1" parent="1">
          <mxGeometry x="120" y="250" width="120" height="60" as="geometry" />
        </mxCell>
        <mxCell id="ghhOEXWkNby1sv8O7cv3-17" style="edgeStyle=orthogonalEdgeStyle;rounded=0;orthogonalLoop=1;jettySize=auto;html=1;exitX=0.25;exitY=1;exitDx=0;exitDy=0;entryX=0.25;entryY=0;entryDx=0;entryDy=0;" edge="1" parent="1" source="ghhOEXWkNby1sv8O7cv3-8" target="ghhOEXWkNby1sv8O7cv3-6">
          <mxGeometry relative="1" as="geometry" />
        </mxCell>
        <mxCell id="ghhOEXWkNby1sv8O7cv3-19" style="edgeStyle=orthogonalEdgeStyle;rounded=0;orthogonalLoop=1;jettySize=auto;html=1;exitX=1;exitY=0.5;exitDx=0;exitDy=0;entryX=0;entryY=0.5;entryDx=0;entryDy=0;" edge="1" parent="1" source="ghhOEXWkNby1sv8O7cv3-22" target="ghhOEXWkNby1sv8O7cv3-1">
          <mxGeometry relative="1" as="geometry" />
        </mxCell>
        <mxCell id="ghhOEXWkNby1sv8O7cv3-26" style="edgeStyle=orthogonalEdgeStyle;rounded=0;orthogonalLoop=1;jettySize=auto;html=1;exitX=1;exitY=0.75;exitDx=0;exitDy=0;entryX=0;entryY=0.75;entryDx=0;entryDy=0;" edge="1" parent="1" source="ghhOEXWkNby1sv8O7cv3-8" target="ghhOEXWkNby1sv8O7cv3-22">
          <mxGeometry relative="1" as="geometry" />
        </mxCell>
        <mxCell id="ghhOEXWkNby1sv8O7cv3-8" value="Notify client via WebSocket" style="whiteSpace=wrap;html=1;" vertex="1" parent="1">
          <mxGeometry x="120" y="70" width="120" height="60" as="geometry" />
        </mxCell>
        <mxCell id="ghhOEXWkNby1sv8O7cv3-21" value="" style="edgeStyle=orthogonalEdgeStyle;rounded=0;orthogonalLoop=1;jettySize=auto;html=1;exitX=0;exitY=0.5;exitDx=0;exitDy=0;entryX=1;entryY=0.5;entryDx=0;entryDy=0;" edge="1" parent="1" source="ghhOEXWkNby1sv8O7cv3-3" target="ghhOEXWkNby1sv8O7cv3-20">
          <mxGeometry relative="1" as="geometry">
            <mxPoint x="480" y="280" as="sourcePoint" />
            <mxPoint x="240" y="280" as="targetPoint" />
          </mxGeometry>
        </mxCell>
        <mxCell id="ghhOEXWkNby1sv8O7cv3-20" value="Data Base" style="whiteSpace=wrap;html=1;" vertex="1" parent="1">
          <mxGeometry x="310" y="250" width="120" height="60" as="geometry" />
        </mxCell>
        <mxCell id="ghhOEXWkNby1sv8O7cv3-27" style="edgeStyle=orthogonalEdgeStyle;rounded=0;orthogonalLoop=1;jettySize=auto;html=1;exitX=0;exitY=0.25;exitDx=0;exitDy=0;entryX=1;entryY=0.25;entryDx=0;entryDy=0;" edge="1" parent="1" source="ghhOEXWkNby1sv8O7cv3-22" target="ghhOEXWkNby1sv8O7cv3-8">
          <mxGeometry relative="1" as="geometry" />
        </mxCell>
        <mxCell id="ghhOEXWkNby1sv8O7cv3-22" value="End User" style="whiteSpace=wrap;html=1;" vertex="1" parent="1">
          <mxGeometry x="310" y="70" width="120" height="60" as="geometry" />
        </mxCell>
      </root>
    </mxGraphModel>
  </diagram>
</mxfile>
